<svg width="100" height="100" viewBox="0 0 100 100" fill="none" xmlns="http://www.w3.org/2000/svg">
<path fill-rule="evenodd" clip-rule="evenodd" d="M10.5093 10.9208C10.314 10.7255 10.314 10.4089 10.5093 10.2137C10.7045 10.0184 11.0211 10.0184 11.2164 10.2137L50.1544 49.1517L88.7994 10.5066C88.9947 10.3113 89.3113 10.3113 89.5066 10.5066C89.7018 10.7018 89.7018 11.0184 89.5066 11.2137L50.8615 49.8588L89.5092 88.5065C89.7045 88.7018 89.7045 89.0184 89.5092 89.2136C89.314 89.4089 88.9974 89.4089 88.8021 89.2136L50.1544 50.5659L11.2137 89.5066C11.0184 89.7018 10.7018 89.7018 10.5066 89.5066C10.3113 89.3113 10.3113 88.9947 10.5066 88.7995L49.4473 49.8588L10.5093 10.9208Z" fill="black"/>
<path d="M50.1544 49.1517L43.0833 56.2227L50.1544 63.2938L57.2254 56.2227L50.1544 49.1517ZM50.8615 49.8588L43.7904 42.7877L36.7193 49.8588L43.7904 56.9298L50.8615 49.8588ZM50.1544 50.5659L57.2254 43.4948L50.1544 36.4237L43.0833 43.4948L50.1544 50.5659ZM49.4473 49.8588L56.5183 56.9298L63.5894 49.8588L56.5183 42.7877L49.4473 49.8588ZM3.43818 3.14258C-0.66232 7.24308 -0.662325 13.8913 3.43818 17.9918L17.5803 3.84969C21.2903 7.55967 21.2903 13.5747 17.5803 17.2847L3.43818 3.14258ZM18.2874 3.14258C14.1869 -0.957925 7.53868 -0.95792 3.43818 3.14258L17.5803 17.2847C13.8703 20.9947 7.85527 20.9947 4.14529 17.2847L18.2874 3.14258ZM57.2254 42.0806L18.2874 3.14258L4.14529 17.2847L43.0833 56.2227L57.2254 42.0806ZM57.2254 56.2227L95.8705 17.5776L81.7284 3.43549L43.0833 42.0806L57.2254 56.2227ZM95.8705 17.5776C92.1605 21.2876 86.1454 21.2876 82.4355 17.5776L96.5776 3.43549C92.4772 -0.664977 85.8289 -0.66505 81.7284 3.43549L95.8705 17.5776ZM82.4355 17.5776C78.7255 13.8677 78.7255 7.85261 82.4355 4.1426L96.5776 18.2847C100.678 14.1842 100.678 7.53596 96.5776 3.43549L82.4355 17.5776ZM82.4355 4.1426L43.7904 42.7877L57.9325 56.9298L96.5776 18.2847L82.4355 4.1426ZM96.5803 81.4355L57.9325 42.7877L43.7904 56.9298L82.4382 95.5776L96.5803 81.4355ZM96.5803 96.2847C100.681 92.1842 100.681 85.536 96.5803 81.4355L82.4382 95.5776C78.7282 91.8676 78.7282 85.8525 82.4382 82.1426L96.5803 96.2847ZM81.7311 96.2847C85.8316 100.385 92.4798 100.385 96.5803 96.2847L82.4382 82.1426C86.1481 78.4326 92.1632 78.4326 95.8732 82.1426L81.7311 96.2847ZM43.0833 57.6369L81.7311 96.2847L95.8732 82.1426L57.2254 43.4948L43.0833 57.6369ZM43.0833 43.4948L4.1426 82.4355L18.2847 96.5776L57.2254 57.6369L43.0833 43.4948ZM4.1426 82.4355C7.85258 78.7255 13.8676 78.7255 17.5776 82.4355L3.43549 96.5776C7.53599 100.678 14.1842 100.678 18.2847 96.5776L4.1426 82.4355ZM17.5776 82.4355C21.2876 86.1455 21.2876 92.1605 17.5776 95.8705L3.43549 81.7284C-0.665017 85.8289 -0.665012 92.4771 3.43549 96.5776L17.5776 82.4355ZM17.5776 95.8705L56.5183 56.9298L42.3762 42.7877L3.43549 81.7284L17.5776 95.8705ZM3.43818 17.9918L42.3762 56.9298L56.5183 42.7877L17.5803 3.84969L3.43818 17.9918Z" fill="white"/>
</svg>
