<svg width="113" height="113" viewBox="0 0 113 113" fill="none" xmlns="http://www.w3.org/2000/svg">
<path fill-rule="evenodd" clip-rule="evenodd" d="M110.987 1.87403C112.373 3.2213 112.562 5.57122 111.409 7.12274L91.0767 34.4842C96.7022 42.5725 100 52.4011 100 63C100 90.6142 77.6142 113 50 113C22.3858 113 0 90.6142 0 63C0 35.3858 22.3858 13 50 13C64.4388 13 77.4481 19.1202 86.5753 28.9079L106.389 2.24387C107.542 0.692348 109.601 0.526768 110.987 1.87403ZM83.5377 32.9956C75.298 23.7919 63.3254 18 50 18C25.1472 18 5 38.1472 5 63C5 87.8528 25.1472 108 50 108C74.8528 108 95 87.8528 95 63C95 54.0684 92.3979 45.7445 87.9104 38.7451L49.0211 91.0787C47.8681 92.6302 45.8098 92.7958 44.4237 91.4485C44.2615 91.2909 44.1157 91.1195 43.9866 90.9373C43.4301 90.6858 42.9363 90.2543 42.5784 89.6564L21.5079 54.4615C20.515 52.803 20.9438 50.4924 22.4657 49.3007C23.9876 48.1089 26.0263 48.4873 27.0192 50.1458L46.5504 82.7696L83.5377 32.9956Z" fill="black"/>
</svg>
