<svg width="94" height="101" viewBox="0 0 94 101" fill="none" xmlns="http://www.w3.org/2000/svg">
<path fill-rule="evenodd" clip-rule="evenodd" d="M90.0567 0.933314C87.1122 -0.882705 83.2529 0.0321537 81.4369 2.97671L61.0823 35.9803L55.6463 32.567C50.9691 29.63 44.7966 31.0408 41.8597 35.718L39.5315 39.4259L77.2005 63.079L79.5287 59.3712C82.4656 54.694 81.0548 48.5215 76.3776 45.5846L71.6925 42.6427L92.1001 9.5531C93.9161 6.60854 93.0013 2.74933 90.0567 0.933314ZM16.0565 62.5514C21.8723 59.3935 29.0778 53.405 36.7361 42.6872L39.177 44.4314C31.3137 55.436 23.7847 61.7688 17.4881 65.1878C13.161 67.5374 9.36794 68.533 6.44643 68.6754L10.7291 74.9639C12.5375 74.496 16.4816 73.466 17.2673 73.1811C18.294 72.8089 24.2662 68.46 24.2662 68.46C24.2662 68.46 20.1524 73.5838 18.8183 74.4799C17.7902 75.1706 14.3333 76.963 12.802 77.7488L20.3124 82.0512L20.1759 81.8727C20.1759 81.8727 31.0115 79.2833 30.4635 79.0863C29.9155 78.8893 40.1325 72.564 40.1325 72.564C40.1325 72.564 35.1664 78.7385 32.6063 80.8806C30.9545 82.2627 27.5481 83.9589 25.3388 84.9886L33.941 91.0575L46.2663 86.7289L58.7937 77.59C58.7937 77.59 53.2068 85.0545 48.7383 88.744C46.4161 90.6614 43.1042 92.6258 40.5515 94.0261L51.0457 96.9212L73.5272 64.4171L75.9945 66.1237L52.9072 99.5036L52.3013 100.38L51.2746 100.096L35.5557 95.7599L35.3036 95.6904L35.0899 95.5396L23.2882 87.2133L10.722 80.0147L10.4223 79.8429L10.2278 79.5574L2.21454 67.791L0 64.5393L3.81729 65.4913C5.84679 65.9974 10.1985 65.7323 16.0565 62.5514Z" fill="black"/>
</svg>
