<svg width="112" height="121" viewBox="0 0 112 121" fill="none" xmlns="http://www.w3.org/2000/svg">
<path fill-rule="evenodd" clip-rule="evenodd" d="M99.3662 2.79112C101.127 0.663649 104.278 0.366155 106.406 2.12665L108.868 4.16428C110.996 5.92477 111.293 9.07659 109.533 11.2041L108.013 13.0412L98.1034 4.31715L99.3662 2.79112ZM97.4656 5.08793L107.375 13.8119L99.0727 23.8446C100.285 25.4989 101 27.5397 101 29.7475V109.747C101 115.27 96.5229 119.747 91 119.747H11C5.47716 119.747 1 115.27 1 109.747V29.7475C1 24.2246 5.47715 19.7475 11 19.7475H85.3347L97.4656 5.08793ZM82.0247 23.7475H11C7.68629 23.7475 5 26.4338 5 29.7475V109.747C5 113.061 7.68629 115.747 11 115.747H91C94.3137 115.747 97 113.061 97 109.747V29.7475C97 28.7951 96.7781 27.8946 96.3832 27.0947L56.5821 75.1925L46.4816 66.6996L82.0247 23.7475ZM92.1699 23.8615L52.4607 71.3205L51.3361 70.2681L50.2907 69.5048L88.576 23.7475H91C91.4003 23.7475 91.7915 23.7867 92.1699 23.8615ZM94.9382 20.5528C93.9889 20.1457 92.9639 19.8813 91.8902 19.7866L101.247 8.60367L103.417 10.4193L94.9382 20.5528ZM45.8441 67.47L45.5301 67.8495L40 84.0014L55.6967 76.2624L55.9446 75.9629L45.8441 67.47Z" fill="black"/>
<path d="M106.406 2.12665L106.725 1.74143L106.725 1.74143L106.406 2.12665ZM99.3662 2.79112L99.7514 3.10988L99.7514 3.10988L99.3662 2.79112ZM108.868 4.16428L108.55 4.54949L108.55 4.54949L108.868 4.16428ZM109.533 11.2041L109.918 11.5228L109.918 11.5228L109.533 11.2041ZM108.013 13.0412L107.682 13.4164L108.069 13.7571L108.398 13.3599L108.013 13.0412ZM98.1034 4.31715L97.7182 3.99838L97.409 4.37199L97.773 4.69243L98.1034 4.31715ZM107.375 13.8119L107.76 14.1307L108.069 13.7571L107.705 13.4367L107.375 13.8119ZM97.4656 5.08793L97.796 4.71265L97.409 4.37199L97.0803 4.76917L97.4656 5.08793ZM99.0727 23.8446L98.6875 23.5258L98.4392 23.8258L98.6694 24.14L99.0727 23.8446ZM85.3347 19.7475V20.2475H85.57L85.7199 20.0662L85.3347 19.7475ZM82.0247 23.7475L82.4099 24.0662L83.0874 23.2475H82.0247V23.7475ZM96.3832 27.0947L96.8315 26.8734L96.4899 26.1815L95.998 26.776L96.3832 27.0947ZM56.5821 75.1925L56.2603 75.5752L56.646 75.8995L56.9673 75.5112L56.5821 75.1925ZM46.4816 66.6996L46.0964 66.3808L45.7802 66.763L46.1599 67.0823L46.4816 66.6996ZM52.4607 71.3205L52.1191 71.6856L52.505 72.0467L52.8442 71.6413L52.4607 71.3205ZM92.1699 23.8615L92.5534 24.1823L93.0952 23.5347L92.2668 23.371L92.1699 23.8615ZM51.3361 70.2681L51.6777 69.903L51.6555 69.8822L51.6309 69.8643L51.3361 70.2681ZM50.2907 69.5048L49.9072 69.184L49.5644 69.5936L49.9959 69.9086L50.2907 69.5048ZM88.576 23.7475V23.2475H88.3425L88.1926 23.4266L88.576 23.7475ZM94.9382 20.5528L94.7412 21.0124L95.083 21.159L95.3217 20.8737L94.9382 20.5528ZM91.8902 19.7866L91.5067 19.4657L90.8919 20.2004L91.8462 20.2846L91.8902 19.7866ZM101.247 8.60367L101.568 8.22019L101.184 7.89934L100.863 8.28281L101.247 8.60367ZM103.417 10.4193L103.8 10.7402L104.121 10.3567L103.738 10.0359L103.417 10.4193ZM45.5301 67.8495L45.1448 67.5307L45.0866 67.6011L45.057 67.6876L45.5301 67.8495ZM45.8441 67.47L46.1659 67.0873L45.7802 66.763L45.4589 67.1512L45.8441 67.47ZM40 84.0014L39.527 83.8394L39.1346 84.9856L40.2211 84.4499L40 84.0014ZM55.6967 76.2624L55.9178 76.7109L56.0137 76.6636L56.0819 76.5812L55.6967 76.2624ZM55.9446 75.9629L56.3298 76.2817L56.646 75.8995L56.2663 75.5802L55.9446 75.9629ZM106.725 1.74143C104.385 -0.195106 100.918 0.132136 98.981 2.47236L99.7514 3.10988C101.336 1.19516 104.172 0.927416 106.087 2.51186L106.725 1.74143ZM109.187 3.77907L106.725 1.74143L106.087 2.51186L108.55 4.54949L109.187 3.77907ZM109.918 11.5228C111.855 9.1826 111.527 5.71561 109.187 3.77907L108.55 4.54949C110.464 6.13393 110.732 8.97057 109.148 10.8853L109.918 11.5228ZM108.398 13.3599L109.918 11.5228L109.148 10.8853L107.627 12.7224L108.398 13.3599ZM97.773 4.69243L107.682 13.4164L108.343 12.6659L98.4338 3.94187L97.773 4.69243ZM98.981 2.47235L97.7182 3.99838L98.4886 4.63591L99.7514 3.10988L98.981 2.47235ZM107.705 13.4367L97.796 4.71265L97.1352 5.46322L107.044 14.1872L107.705 13.4367ZM99.458 24.1633L107.76 14.1307L106.99 13.4932L98.6875 23.5258L99.458 24.1633ZM101.5 29.7475C101.5 27.4299 100.749 25.2863 99.4761 23.5491L98.6694 24.14C99.8205 25.7116 100.5 27.6494 100.5 29.7475H101.5ZM101.5 109.747V29.7475H100.5V109.747H101.5ZM91 120.247C96.799 120.247 101.5 115.546 101.5 109.747H100.5C100.5 114.994 96.2467 119.247 91 119.247V120.247ZM11 120.247H91V119.247H11V120.247ZM0.5 109.747C0.5 115.546 5.20101 120.247 11 120.247V119.247C5.7533 119.247 1.5 114.994 1.5 109.747H0.5ZM0.5 29.7475V109.747H1.5V29.7475H0.5ZM11 19.2475C5.20101 19.2475 0.5 23.9485 0.5 29.7475H1.5C1.5 24.5008 5.7533 20.2475 11 20.2475V19.2475ZM85.3347 19.2475H11V20.2475H85.3347V19.2475ZM97.0803 4.76917L84.9495 19.4287L85.7199 20.0662L97.8508 5.4067L97.0803 4.76917ZM82.0247 23.2475H11V24.2475H82.0247V23.2475ZM11 23.2475C7.41015 23.2475 4.5 26.1576 4.5 29.7475H5.5C5.5 26.7099 7.96244 24.2475 11 24.2475V23.2475ZM4.5 29.7475V109.747H5.5V29.7475H4.5ZM4.5 109.747C4.5 113.337 7.41015 116.247 11 116.247V115.247C7.96244 115.247 5.5 112.785 5.5 109.747H4.5ZM11 116.247H91V115.247H11V116.247ZM91 116.247C94.5898 116.247 97.5 113.337 97.5 109.747H96.5C96.5 112.785 94.0376 115.247 91 115.247V116.247ZM97.5 109.747V29.7475H96.5V109.747H97.5ZM97.5 29.7475C97.5 28.7166 97.2597 27.7405 96.8315 26.8734L95.9349 27.3161C96.2965 28.0486 96.5 28.8736 96.5 29.7475H97.5ZM56.9673 75.5112L96.7684 27.4135L95.998 26.776L56.1969 74.8737L56.9673 75.5112ZM46.1599 67.0823L56.2603 75.5752L56.9039 74.8098L46.8034 66.3169L46.1599 67.0823ZM81.6395 23.4287L46.0964 66.3808L46.8669 67.0183L82.4099 24.0662L81.6395 23.4287ZM52.8442 71.6413L92.5534 24.1823L91.7864 23.5406L52.0773 70.9996L52.8442 71.6413ZM50.9945 70.6332L52.1191 71.6856L52.8024 70.9554L51.6777 69.903L50.9945 70.6332ZM49.9959 69.9086L51.0413 70.6719L51.6309 69.8643L50.5855 69.101L49.9959 69.9086ZM88.1926 23.4266L49.9072 69.184L50.6742 69.8257L88.9595 24.0683L88.1926 23.4266ZM91 23.2475H88.576V24.2475H91V23.2475ZM92.2668 23.371C91.8567 23.2899 91.4331 23.2475 91 23.2475V24.2475C91.3676 24.2475 91.7263 24.2835 92.0729 24.352L92.2668 23.371ZM95.1353 20.0933C94.1381 19.6656 93.0615 19.3879 91.9341 19.2885L91.8462 20.2846C92.8663 20.3746 93.8397 20.6258 94.7412 21.0124L95.1353 20.0933ZM100.863 8.28281L91.5067 19.4657L92.2736 20.1074L101.63 8.92452L100.863 8.28281ZM103.738 10.0359L101.568 8.22019L100.926 8.98714L103.096 10.8028L103.738 10.0359ZM95.3217 20.8737L103.8 10.7402L103.033 10.0985L94.5548 20.232L95.3217 20.8737ZM45.9153 68.1683L46.2293 67.7888L45.4589 67.1512L45.1448 67.5307L45.9153 68.1683ZM40.4731 84.1634L46.0031 68.0115L45.057 67.6876L39.527 83.8394L40.4731 84.1634ZM55.4756 75.814L39.7789 83.5529L40.2211 84.4499L55.9178 76.7109L55.4756 75.814ZM55.5593 75.6442L55.3115 75.9437L56.0819 76.5812L56.3298 76.2817L55.5593 75.6442ZM45.5223 67.8527L55.6228 76.3456L56.2663 75.5802L46.1659 67.0873L45.5223 67.8527Z" fill="black"/>
</svg>
