<svg width="264" height="200" viewBox="0 0 264 200" fill="none" xmlns="http://www.w3.org/2000/svg">
<g filter="url(#filter0_d_317_673)">
<mask id="path-1-inside-1_317_673" fill="white">
<path fill-rule="evenodd" clip-rule="evenodd" d="M51.0042 0C39.9585 0 31.0042 8.9543 31.0042 20V50V80V146C31.0042 157.046 39.9585 166 51.0042 166H240C251.046 166 260 157.046 260 146V50C260 38.9543 251.046 30 240 30H154.143V20C154.143 8.95431 145.189 0 134.143 0H51.0042Z"/>
</mask>
<path fill-rule="evenodd" clip-rule="evenodd" d="M51.0042 0C39.9585 0 31.0042 8.9543 31.0042 20V50V80V146C31.0042 157.046 39.9585 166 51.0042 166H240C251.046 166 260 157.046 260 146V50C260 38.9543 251.046 30 240 30H154.143V20C154.143 8.95431 145.189 0 134.143 0H51.0042Z" fill="#8B8A8A"/>
<path d="M154.143 30H151.143V33H154.143V30ZM34.0042 20C34.0042 10.6112 41.6153 3 51.0042 3V-3C38.3016 -3 28.0042 7.29745 28.0042 20H34.0042ZM34.0042 50V20H28.0042V50H34.0042ZM34.0042 80V50H28.0042V80H34.0042ZM34.0042 146V80H28.0042V146H34.0042ZM51.0042 163C41.6153 163 34.0042 155.389 34.0042 146H28.0042C28.0042 158.703 38.3016 169 51.0042 169V163ZM240 163H51.0042V169H240V163ZM257 146C257 155.389 249.389 163 240 163V169C252.702 169 263 158.703 263 146H257ZM257 50V146H263V50H257ZM240 33C249.389 33 257 40.6112 257 50H263C263 37.2975 252.702 27 240 27V33ZM154.143 33H240V27H154.143V33ZM151.143 20V30H157.143V20H151.143ZM134.143 3C143.532 3 151.143 10.6112 151.143 20H157.143C157.143 7.29745 146.846 -3 134.143 -3V3ZM51.0042 3H134.143V-3H51.0042V3Z" fill="black" mask="url(#path-1-inside-1_317_673)"/>
<mask id="path-3-inside-2_317_673" fill="white">
<path fill-rule="evenodd" clip-rule="evenodd" d="M38.0422 13C26.9965 13 18.0422 21.9543 18.0422 33V63V93V159C18.0422 170.046 26.9966 179 38.0422 179H227.038C238.084 179 247.038 170.046 247.038 159V63C247.038 51.9543 238.084 43 227.038 43H141.181V33C141.181 21.9543 132.227 13 121.181 13H38.0422Z"/>
</mask>
<path fill-rule="evenodd" clip-rule="evenodd" d="M38.0422 13C26.9965 13 18.0422 21.9543 18.0422 33V63V93V159C18.0422 170.046 26.9966 179 38.0422 179H227.038C238.084 179 247.038 170.046 247.038 159V63C247.038 51.9543 238.084 43 227.038 43H141.181V33C141.181 21.9543 132.227 13 121.181 13H38.0422Z" fill="#AAA6A6"/>
<path d="M141.181 43H138.181V46H141.181V43ZM21.0422 33C21.0422 23.6112 28.6534 16 38.0422 16V10C25.3397 10 15.0422 20.2974 15.0422 33H21.0422ZM21.0422 63V33H15.0422V63H21.0422ZM21.0422 93V63H15.0422V93H21.0422ZM21.0422 159V93H15.0422V159H21.0422ZM38.0422 176C28.6534 176 21.0422 168.389 21.0422 159H15.0422C15.0422 171.703 25.3397 182 38.0422 182V176ZM227.038 176H38.0422V182H227.038V176ZM244.038 159C244.038 168.389 236.427 176 227.038 176V182C239.741 182 250.038 171.703 250.038 159H244.038ZM244.038 63V159H250.038V63H244.038ZM227.038 46C236.427 46 244.038 53.6112 244.038 63H250.038C250.038 50.2975 239.741 40 227.038 40V46ZM141.181 46H227.038V40H141.181V46ZM138.181 33V43H144.181V33H138.181ZM121.181 16C130.57 16 138.181 23.6112 138.181 33H144.181C144.181 20.2974 133.884 10 121.181 10V16ZM38.0422 16H121.181V10H38.0422V16Z" fill="black" mask="url(#path-3-inside-2_317_673)"/>
<mask id="path-5-inside-3_317_673" fill="white">
<path fill-rule="evenodd" clip-rule="evenodd" d="M24 26C12.9543 26 4 34.9543 4 46V76V106V172C4 183.046 12.9543 192 24 192H212.996C224.041 192 232.996 183.046 232.996 172V76C232.996 64.9543 224.041 56 212.996 56H127.139V46C127.139 34.9543 118.185 26 107.139 26H24Z"/>
</mask>
<path fill-rule="evenodd" clip-rule="evenodd" d="M24 26C12.9543 26 4 34.9543 4 46V76V106V172C4 183.046 12.9543 192 24 192H212.996C224.041 192 232.996 183.046 232.996 172V76C232.996 64.9543 224.041 56 212.996 56H127.139V46C127.139 34.9543 118.185 26 107.139 26H24Z" fill="#CAC7C7"/>
<path d="M127.139 56H124.139V59H127.139V56ZM7 46C7 36.6112 14.6112 29 24 29V23C11.2975 23 1 33.2974 1 46H7ZM7 76V46H1V76H7ZM7 106V76H1V106H7ZM7 172V106H1V172H7ZM24 189C14.6112 189 7 181.389 7 172H1C1 184.703 11.2975 195 24 195V189ZM212.996 189H24V195H212.996V189ZM229.996 172C229.996 181.389 222.385 189 212.996 189V195C225.698 195 235.996 184.703 235.996 172H229.996ZM229.996 76V172H235.996V76H229.996ZM212.996 59C222.385 59 229.996 66.6112 229.996 76H235.996C235.996 63.2975 225.698 53 212.996 53V59ZM127.139 59H212.996V53H127.139V59ZM124.139 46V56H130.139V46H124.139ZM107.139 29C116.528 29 124.139 36.6112 124.139 46H130.139C130.139 33.2974 119.842 23 107.139 23V29ZM24 29H107.139V23H24V29Z" fill="black" mask="url(#path-5-inside-3_317_673)"/>
<path d="M147.5 54C147.5 52.067 149.067 50.5 151 50.5H203C204.933 50.5 206.5 52.067 206.5 54V138.461C206.5 141.412 203.072 143.039 200.786 141.172L182.011 125.839C179.678 123.934 176.341 123.881 173.949 125.713L153.128 141.654C150.825 143.417 147.5 141.775 147.5 138.875V54Z" fill="#BB9DF9" stroke="black" stroke-width="3"/>
<path d="M42.76 173H38.52L28.4 159.36L25.48 161.92V173H21.88V144.44H25.48V158.52C26.28 157.613 27.0933 156.707 27.92 155.8C28.7467 154.893 29.5733 153.987 30.4 153.08L38.12 144.44H42.32L31 156.88L42.76 173Z" fill="black"/>
<path d="M54.4456 151.16C56.2856 151.16 57.859 151.56 59.1656 152.36C60.499 153.16 61.5123 154.293 62.2056 155.76C62.9256 157.2 63.2856 158.893 63.2856 160.84V162.96H48.6056C48.659 165.387 49.2723 167.24 50.4456 168.52C51.6456 169.773 53.3123 170.4 55.4456 170.4C56.8056 170.4 58.0056 170.28 59.0456 170.04C60.1123 169.773 61.2056 169.4 62.3256 168.92V172C61.2323 172.48 60.1523 172.827 59.0856 173.04C58.019 173.28 56.7523 173.4 55.2856 173.4C53.259 173.4 51.459 172.987 49.8856 172.16C48.339 171.333 47.1256 170.107 46.2456 168.48C45.3923 166.827 44.9656 164.813 44.9656 162.44C44.9656 160.093 45.3523 158.08 46.1256 156.4C46.9256 154.72 48.0323 153.427 49.4456 152.52C50.8856 151.613 52.5523 151.16 54.4456 151.16ZM54.4056 154.04C52.7256 154.04 51.3923 154.587 50.4056 155.68C49.4456 156.747 48.8723 158.24 48.6856 160.16H59.6056C59.6056 158.933 59.419 157.867 59.0456 156.96C58.6723 156.053 58.099 155.347 57.3256 154.84C56.579 154.307 55.6056 154.04 54.4056 154.04Z" fill="black"/>
<path d="M77.0238 151.16C78.8638 151.16 80.4371 151.56 81.7438 152.36C83.0771 153.16 84.0904 154.293 84.7838 155.76C85.5038 157.2 85.8638 158.893 85.8638 160.84V162.96H71.1838C71.2371 165.387 71.8504 167.24 73.0238 168.52C74.2238 169.773 75.8904 170.4 78.0238 170.4C79.3838 170.4 80.5838 170.28 81.6238 170.04C82.6904 169.773 83.7838 169.4 84.9038 168.92V172C83.8104 172.48 82.7304 172.827 81.6638 173.04C80.5971 173.28 79.3304 173.4 77.8638 173.4C75.8371 173.4 74.0371 172.987 72.4638 172.16C70.9171 171.333 69.7038 170.107 68.8238 168.48C67.9704 166.827 67.5438 164.813 67.5438 162.44C67.5438 160.093 67.9304 158.08 68.7038 156.4C69.5038 154.72 70.6104 153.427 72.0238 152.52C73.4638 151.613 75.1304 151.16 77.0238 151.16ZM76.9838 154.04C75.3038 154.04 73.9704 154.587 72.9838 155.68C72.0238 156.747 71.4504 158.24 71.2638 160.16H82.1838C82.1838 158.933 81.9971 157.867 81.6238 156.96C81.2504 156.053 80.6771 155.347 79.9038 154.84C79.1571 154.307 78.1838 154.04 76.9838 154.04Z" fill="black"/>
<path d="M101.522 151.16C104.162 151.16 106.282 152.08 107.882 153.92C109.509 155.76 110.322 158.533 110.322 162.24C110.322 164.667 109.949 166.72 109.202 168.4C108.482 170.053 107.455 171.307 106.122 172.16C104.815 172.987 103.269 173.4 101.482 173.4C100.389 173.4 99.4152 173.253 98.5619 172.96C97.7085 172.667 96.9752 172.293 96.3619 171.84C95.7752 171.36 95.2685 170.84 94.8419 170.28H94.6019C94.6552 170.733 94.7085 171.307 94.7619 172C94.8152 172.693 94.8419 173.293 94.8419 173.8V182.6H91.3219V151.56H94.2019L94.6819 154.48H94.8419C95.2685 153.867 95.7752 153.307 96.3619 152.8C96.9752 152.293 97.6952 151.893 98.5219 151.6C99.3752 151.307 100.375 151.16 101.522 151.16ZM100.882 154.12C99.4419 154.12 98.2819 154.4 97.4019 154.96C96.5219 155.493 95.8819 156.307 95.4819 157.4C95.0819 158.493 94.8685 159.88 94.8419 161.56V162.24C94.8419 164 95.0285 165.493 95.4019 166.72C95.7752 167.947 96.4019 168.88 97.2819 169.52C98.1886 170.16 99.4152 170.48 100.962 170.48C102.269 170.48 103.335 170.12 104.162 169.4C105.015 168.68 105.642 167.707 106.042 166.48C106.469 165.227 106.682 163.8 106.682 162.2C106.682 159.747 106.202 157.787 105.242 156.32C104.309 154.853 102.855 154.12 100.882 154.12Z" fill="black"/>
<path d="M124.211 151.16C126.051 151.16 127.625 151.56 128.931 152.36C130.265 153.16 131.278 154.293 131.971 155.76C132.691 157.2 133.051 158.893 133.051 160.84V162.96H118.371C118.425 165.387 119.038 167.24 120.211 168.52C121.411 169.773 123.078 170.4 125.211 170.4C126.571 170.4 127.771 170.28 128.811 170.04C129.878 169.773 130.971 169.4 132.091 168.92V172C130.998 172.48 129.918 172.827 128.851 173.04C127.785 173.28 126.518 173.4 125.051 173.4C123.025 173.4 121.225 172.987 119.651 172.16C118.105 171.333 116.891 170.107 116.011 168.48C115.158 166.827 114.731 164.813 114.731 162.44C114.731 160.093 115.118 158.08 115.891 156.4C116.691 154.72 117.798 153.427 119.211 152.52C120.651 151.613 122.318 151.16 124.211 151.16ZM124.171 154.04C122.491 154.04 121.158 154.587 120.171 155.68C119.211 156.747 118.638 158.24 118.451 160.16H129.371C129.371 158.933 129.185 157.867 128.811 156.96C128.438 156.053 127.865 155.347 127.091 154.84C126.345 154.307 125.371 154.04 124.171 154.04Z" fill="black"/>
<path d="M148.509 151.16C148.909 151.16 149.336 151.187 149.789 151.24C150.269 151.267 150.683 151.32 151.029 151.4L150.589 154.64C150.243 154.56 149.856 154.493 149.429 154.44C149.029 154.387 148.643 154.36 148.269 154.36C147.443 154.36 146.656 154.533 145.909 154.88C145.163 155.227 144.496 155.72 143.909 156.36C143.323 156.973 142.856 157.72 142.509 158.6C142.189 159.48 142.029 160.467 142.029 161.56V173H138.509V151.56H141.389L141.789 155.48H141.949C142.403 154.68 142.949 153.96 143.589 153.32C144.229 152.653 144.963 152.133 145.789 151.76C146.616 151.36 147.523 151.16 148.509 151.16Z" fill="black"/>
<path d="M29.76 93.4399C32.1333 93.4399 34.08 93.7466 35.6 94.3599C37.1467 94.9466 38.2933 95.8399 39.04 97.0399C39.7867 98.2399 40.16 99.7466 40.16 101.56C40.16 103.08 39.88 104.347 39.32 105.36C38.76 106.373 38.04 107.187 37.16 107.8C36.3067 108.387 35.4 108.853 34.44 109.2L42.28 122H38.08L31.16 110.2H25.48V122H21.88V93.4399H29.76ZM29.56 96.5599H25.48V107.16H29.76C31.3067 107.16 32.5733 106.96 33.56 106.56C34.5467 106.133 35.2667 105.52 35.72 104.72C36.2 103.92 36.44 102.92 36.44 101.72C36.44 100.467 36.1867 99.4666 35.68 98.7199C35.2 97.9733 34.4533 97.4266 33.44 97.0799C32.4267 96.7333 31.1333 96.5599 29.56 96.5599Z" fill="black"/>
<path d="M54.5628 100.16C56.4028 100.16 57.9762 100.56 59.2828 101.36C60.6161 102.16 61.6295 103.293 62.3228 104.76C63.0428 106.2 63.4028 107.893 63.4028 109.84V111.96H48.7228C48.7762 114.387 49.3895 116.24 50.5628 117.52C51.7628 118.773 53.4295 119.4 55.5628 119.4C56.9228 119.4 58.1228 119.28 59.1628 119.04C60.2295 118.773 61.3228 118.4 62.4428 117.92V121C61.3495 121.48 60.2695 121.827 59.2028 122.04C58.1362 122.28 56.8695 122.4 55.4028 122.4C53.3762 122.4 51.5762 121.987 50.0028 121.16C48.4562 120.333 47.2428 119.107 46.3628 117.48C45.5095 115.827 45.0828 113.813 45.0828 111.44C45.0828 109.093 45.4695 107.08 46.2428 105.4C47.0428 103.72 48.1495 102.427 49.5628 101.52C51.0028 100.613 52.6695 100.16 54.5628 100.16ZM54.5228 103.04C52.8428 103.04 51.5095 103.587 50.5228 104.68C49.5628 105.747 48.9895 107.24 48.8028 109.16H59.7228C59.7228 107.933 59.5362 106.867 59.1628 105.96C58.7895 105.053 58.2162 104.347 57.4428 103.84C56.6962 103.307 55.7228 103.04 54.5228 103.04Z" fill="black"/>
<path d="M79.0609 100.16C81.7009 100.16 83.8209 101.08 85.4209 102.92C87.0476 104.76 87.8609 107.533 87.8609 111.24C87.8609 113.667 87.4876 115.72 86.7409 117.4C86.0209 119.053 84.9943 120.307 83.6609 121.16C82.3543 121.987 80.8076 122.4 79.0209 122.4C77.9276 122.4 76.9543 122.253 76.1009 121.96C75.2476 121.667 74.5143 121.293 73.9009 120.84C73.3143 120.36 72.8076 119.84 72.3809 119.28H72.1409C72.1943 119.733 72.2476 120.307 72.3009 121C72.3543 121.693 72.3809 122.293 72.3809 122.8V131.6H68.8609V100.56H71.7409L72.2209 103.48H72.3809C72.8076 102.867 73.3143 102.307 73.9009 101.8C74.5143 101.293 75.2343 100.893 76.0609 100.6C76.9143 100.307 77.9143 100.16 79.0609 100.16ZM78.4209 103.12C76.9809 103.12 75.8209 103.4 74.9409 103.96C74.0609 104.493 73.4209 105.307 73.0209 106.4C72.6209 107.493 72.4076 108.88 72.3809 110.56V111.24C72.3809 113 72.5676 114.493 72.9409 115.72C73.3143 116.947 73.9409 117.88 74.8209 118.52C75.7276 119.16 76.9543 119.48 78.5009 119.48C79.8076 119.48 80.8743 119.12 81.7009 118.4C82.5543 117.68 83.1809 116.707 83.5809 115.48C84.0076 114.227 84.2209 112.8 84.2209 111.2C84.2209 108.747 83.7409 106.787 82.7809 105.32C81.8476 103.853 80.3943 103.12 78.4209 103.12Z" fill="black"/>
<path d="M112.11 111.24C112.11 113.027 111.87 114.613 111.39 116C110.937 117.36 110.27 118.52 109.39 119.48C108.537 120.44 107.484 121.173 106.23 121.68C105.004 122.16 103.63 122.4 102.11 122.4C100.697 122.4 99.3903 122.16 98.1903 121.68C96.9903 121.173 95.9503 120.44 95.0703 119.48C94.1903 118.52 93.497 117.36 92.9903 116C92.5103 114.613 92.2703 113.027 92.2703 111.24C92.2703 108.867 92.6703 106.867 93.4703 105.24C94.2703 103.587 95.417 102.333 96.9103 101.48C98.4036 100.6 100.177 100.16 102.23 100.16C104.177 100.16 105.884 100.6 107.35 101.48C108.844 102.333 110.004 103.587 110.83 105.24C111.684 106.867 112.11 108.867 112.11 111.24ZM95.9103 111.24C95.9103 112.92 96.1236 114.387 96.5503 115.64C97.0036 116.867 97.697 117.813 98.6303 118.48C99.5637 119.147 100.75 119.48 102.19 119.48C103.63 119.48 104.817 119.147 105.75 118.48C106.684 117.813 107.364 116.867 107.79 115.64C108.244 114.387 108.47 112.92 108.47 111.24C108.47 109.533 108.244 108.08 107.79 106.88C107.337 105.68 106.644 104.76 105.71 104.12C104.804 103.453 103.617 103.12 102.15 103.12C99.9636 103.12 98.377 103.84 97.3903 105.28C96.4037 106.72 95.9103 108.707 95.9103 111.24Z" fill="black"/>
</g>
<defs>
<filter id="filter0_d_317_673" x="0" y="0" width="264" height="200" filterUnits="userSpaceOnUse" color-interpolation-filters="sRGB">
<feFlood flood-opacity="0" result="BackgroundImageFix"/>
<feColorMatrix in="SourceAlpha" type="matrix" values="0 0 0 0 0 0 0 0 0 0 0 0 0 0 0 0 0 0 127 0" result="hardAlpha"/>
<feOffset dy="4"/>
<feGaussianBlur stdDeviation="2"/>
<feComposite in2="hardAlpha" operator="out"/>
<feColorMatrix type="matrix" values="0 0 0 0 0 0 0 0 0 0 0 0 0 0 0 0 0 0 0.25 0"/>
<feBlend mode="normal" in2="BackgroundImageFix" result="effect1_dropShadow_317_673"/>
<feBlend mode="normal" in="SourceGraphic" in2="effect1_dropShadow_317_673" result="shape"/>
</filter>
</defs>
</svg>
