<svg width="118" height="118" viewBox="0 0 118 118" fill="none" xmlns="http://www.w3.org/2000/svg">
<path fill-rule="evenodd" clip-rule="evenodd" d="M58.3545 3.78589C58.3545 3.50975 58.5784 3.28589 58.8545 3.28589C59.1307 3.28589 59.3545 3.50975 59.3545 3.78589V58.8525H114.007C114.283 58.8525 114.507 59.0764 114.507 59.3525C114.507 59.6287 114.283 59.8525 114.007 59.8525H59.3545V114.509C59.3545 114.785 59.1307 115.009 58.8545 115.009C58.5784 115.009 58.3545 114.785 58.3545 114.509V59.8525H3.28406C3.00792 59.8525 2.78406 59.6287 2.78406 59.3525C2.78406 59.0764 3.00792 58.8525 3.28406 58.8525H58.3545V3.78589Z" fill="black"/>
<path d="M59.3545 58.8525H56.8545V61.3525H59.3545V58.8525ZM59.3545 59.8525V57.3525H56.8545V59.8525H59.3545ZM58.3545 59.8525H60.8545V57.3525H58.3545V59.8525ZM58.3545 58.8525V61.3525H60.8545V58.8525H58.3545ZM58.8545 0.785889C57.1977 0.785889 55.8545 2.12903 55.8545 3.78589H60.8545C60.8545 4.89046 59.9591 5.78589 58.8545 5.78589V0.785889ZM61.8545 3.78589C61.8545 2.12903 60.5114 0.785889 58.8545 0.785889V5.78589C57.7499 5.78589 56.8545 4.89046 56.8545 3.78589H61.8545ZM61.8545 58.8525V3.78589H56.8545V58.8525H61.8545ZM59.3545 61.3525H114.007V56.3525H59.3545V61.3525ZM114.007 61.3525C112.902 61.3525 112.007 60.4571 112.007 59.3525H117.007C117.007 57.6957 115.664 56.3525 114.007 56.3525V61.3525ZM112.007 59.3525C112.007 58.248 112.902 57.3525 114.007 57.3525V62.3525C115.664 62.3525 117.007 61.0094 117.007 59.3525H112.007ZM114.007 57.3525H59.3545V62.3525H114.007V57.3525ZM61.8545 114.509V59.8525H56.8545V114.509H61.8545ZM58.8545 117.509C60.5114 117.509 61.8545 116.166 61.8545 114.509H56.8545C56.8545 113.404 57.75 112.509 58.8545 112.509V117.509ZM55.8545 114.509C55.8545 116.166 57.1977 117.509 58.8545 117.509V112.509C59.9591 112.509 60.8545 113.404 60.8545 114.509H55.8545ZM55.8545 59.8525V114.509H60.8545V59.8525H55.8545ZM58.3545 57.3525H3.28406V62.3525H58.3545V57.3525ZM3.28406 57.3525C4.38863 57.3525 5.28406 58.248 5.28406 59.3525H0.284058C0.284058 61.0094 1.6272 62.3525 3.28406 62.3525V57.3525ZM5.28406 59.3525C5.28406 60.4571 4.38863 61.3525 3.28406 61.3525V56.3525C1.6272 56.3525 0.284058 57.6957 0.284058 59.3525H5.28406ZM3.28406 61.3525H58.3545V56.3525H3.28406V61.3525ZM55.8545 3.78589V58.8525H60.8545V3.78589H55.8545Z" fill="black"/>
</svg>
