<svg width="115" height="117" viewBox="0 0 115 117" fill="none" xmlns="http://www.w3.org/2000/svg">
<mask id="path-1-outside-1_221_465" maskUnits="userSpaceOnUse" x="0" y="0" width="115" height="117" fill="black">
<rect fill="white" width="115" height="117"/>
<path fill-rule="evenodd" clip-rule="evenodd" d="M63 35.5C63 50.6878 50.6878 63 35.5 63C20.3122 63 8 50.6878 8 35.5C8 20.3122 20.3122 8 35.5 8C50.6878 8 63 20.3122 63 35.5ZM55.2855 61.2855C49.8056 65.4965 42.9452 68 35.5 68C17.5507 68 3 53.4493 3 35.5C3 17.5507 17.5507 3 35.5 3C53.4493 3 68 17.5507 68 35.5C68 44.2022 64.5798 52.1056 59.0103 57.9392L110.768 109.697C111.744 110.673 111.744 112.256 110.768 113.232C109.791 114.209 108.209 114.209 107.232 113.232L55.2855 61.2855Z"/>
</mask>
<path fill-rule="evenodd" clip-rule="evenodd" d="M63 35.5C63 50.6878 50.6878 63 35.5 63C20.3122 63 8 50.6878 8 35.5C8 20.3122 20.3122 8 35.5 8C50.6878 8 63 20.3122 63 35.5ZM55.2855 61.2855C49.8056 65.4965 42.9452 68 35.5 68C17.5507 68 3 53.4493 3 35.5C3 17.5507 17.5507 3 35.5 3C53.4493 3 68 17.5507 68 35.5C68 44.2022 64.5798 52.1056 59.0103 57.9392L110.768 109.697C111.744 110.673 111.744 112.256 110.768 113.232C109.791 114.209 108.209 114.209 107.232 113.232L55.2855 61.2855Z" fill="black"/>
<path d="M55.2855 61.2855L57.4068 59.1642L55.5451 57.3025L53.4575 58.9067L55.2855 61.2855ZM59.0103 57.9392L56.8404 55.8676L54.8162 57.9878L56.889 60.0606L59.0103 57.9392ZM110.768 109.697L108.646 111.818L108.646 111.818L110.768 109.697ZM107.232 113.232L109.354 111.111L109.354 111.111L107.232 113.232ZM35.5 66C52.3447 66 66 52.3447 66 35.5H60C60 49.031 49.031 60 35.5 60V66ZM5 35.5C5 52.3447 18.6553 66 35.5 66V60C21.969 60 11 49.031 11 35.5H5ZM35.5 5C18.6553 5 5 18.6553 5 35.5H11C11 21.969 21.969 11 35.5 11V5ZM66 35.5C66 18.6553 52.3447 5 35.5 5V11C49.031 11 60 21.969 60 35.5H66ZM35.5 71C43.6291 71 51.1278 68.264 57.1135 63.6642L53.4575 58.9067C48.4835 62.7291 42.2612 65 35.5 65V71ZM0 35.5C0 55.1061 15.8939 71 35.5 71V65C19.2076 65 6 51.7924 6 35.5H0ZM35.5 0C15.8939 0 0 15.8939 0 35.5H6C6 19.2076 19.2076 6 35.5 6V0ZM71 35.5C71 15.8939 55.1061 0 35.5 0V6C51.7924 6 65 19.2076 65 35.5H71ZM61.1802 60.0109C67.2611 53.6415 71 45.0042 71 35.5H65C65 43.4002 61.8985 50.5697 56.8404 55.8676L61.1802 60.0109ZM56.889 60.0606L108.646 111.818L112.889 107.575L61.1316 55.8179L56.889 60.0606ZM108.646 111.818C108.451 111.623 108.451 111.306 108.646 111.111L112.889 115.354C115.037 113.206 115.037 109.723 112.889 107.575L108.646 111.818ZM108.646 111.111C108.842 110.916 109.158 110.916 109.354 111.111L105.111 115.354C107.259 117.501 110.741 117.501 112.889 115.354L108.646 111.111ZM109.354 111.111L57.4068 59.1642L53.1642 63.4068L105.111 115.354L109.354 111.111Z" fill="black" mask="url(#path-1-outside-1_221_465)"/>
</svg>
