<svg width="82" height="90" viewBox="0 0 82 90" fill="none" xmlns="http://www.w3.org/2000/svg">
<path fill-rule="evenodd" clip-rule="evenodd" d="M32 7H50V17H32V7ZM56 4V17H79C80.6569 17 82 18.3431 82 20C82 21.6569 80.6569 23 79 23H74V75C74 83.2843 67.2843 90 59 90H23C14.7157 90 8 83.2843 8 75V23H3C1.34315 23 0 21.6569 0 20C0 18.3431 1.34315 17 3 17H26V4V3C26 1.34315 27.3431 0 29 0H53C54.6569 0 56 1.34315 56 3V4ZM13 23V75C13 80.5228 17.4772 85 23 85H59C64.5228 85 69 80.5228 69 75V23H13ZM21 73.5C21 74.8807 22.1193 76 23.5 76C24.8807 76 26 74.8807 26 73.5V33.5C26 32.1193 24.8807 31 23.5 31C22.1193 31 21 32.1193 21 33.5V73.5ZM38 73C38 74.6569 39.3431 76 41 76C42.6569 76 44 74.6569 44 73V34C44 32.3431 42.6569 31 41 31C39.3431 31 38 32.3431 38 34V73ZM58.5 76C57.1193 76 56 74.8807 56 73.5V33.5C56 32.1193 57.1193 31 58.5 31C59.8807 31 61 32.1193 61 33.5V73.5C61 74.8807 59.8807 76 58.5 76Z" fill="black"/>
</svg>
