<svg width="210" height="186" viewBox="0 0 210 186" fill="none" xmlns="http://www.w3.org/2000/svg">
<mask id="path-1-inside-1_304_465" fill="white">
<path fill-rule="evenodd" clip-rule="evenodd" d="M42.1519 0C31.1062 0 22.1519 8.9543 22.1519 20V44V80V140C22.1519 151.046 31.1062 160 42.1519 160H190C201.046 160 210 151.046 210 140V44C210 32.9543 201.046 24 190 24H123.165V20C123.165 8.95431 114.21 0 103.165 0H42.1519Z"/>
</mask>
<path fill-rule="evenodd" clip-rule="evenodd" d="M42.1519 0C31.1062 0 22.1519 8.9543 22.1519 20V44V80V140C22.1519 151.046 31.1062 160 42.1519 160H190C201.046 160 210 151.046 210 140V44C210 32.9543 201.046 24 190 24H123.165V20C123.165 8.95431 114.21 0 103.165 0H42.1519Z" fill="#8B8A8A"/>
<path d="M123.165 24H120.165V27H123.165V24ZM25.1519 20C25.1519 10.6112 32.763 3 42.1519 3V-3C29.4493 -3 19.1519 7.29745 19.1519 20H25.1519ZM25.1519 44V20H19.1519V44H25.1519ZM25.1519 80V44H19.1519V80H25.1519ZM25.1519 140V80H19.1519V140H25.1519ZM42.1519 157C32.763 157 25.1519 149.389 25.1519 140H19.1519C19.1519 152.703 29.4493 163 42.1519 163V157ZM190 157H42.1519V163H190V157ZM207 140C207 149.389 199.389 157 190 157V163C202.702 163 213 152.703 213 140H207ZM207 44V140H213V44H207ZM190 27C199.389 27 207 34.6112 207 44H213C213 31.2975 202.703 21 190 21V27ZM123.165 27H190V21H123.165V27ZM120.165 20V24H126.165V20H120.165ZM103.165 3C112.553 3 120.165 10.6112 120.165 20H126.165C126.165 7.29745 115.867 -3 103.165 -3V3ZM42.1519 3H103.165V-3H42.1519V3Z" fill="black" mask="url(#path-1-inside-1_304_465)"/>
<mask id="path-3-inside-2_304_465" fill="white">
<path fill-rule="evenodd" clip-rule="evenodd" d="M31.519 13C20.4733 13 11.519 21.9543 11.519 33V57V93V153C11.519 164.046 20.4733 173 31.519 173H179.367C190.413 173 199.367 164.046 199.367 153V57C199.367 45.9543 190.413 37 179.367 37H112.532V33C112.532 21.9543 103.577 13 92.5317 13H31.519Z"/>
</mask>
<path fill-rule="evenodd" clip-rule="evenodd" d="M31.519 13C20.4733 13 11.519 21.9543 11.519 33V57V93V153C11.519 164.046 20.4733 173 31.519 173H179.367C190.413 173 199.367 164.046 199.367 153V57C199.367 45.9543 190.413 37 179.367 37H112.532V33C112.532 21.9543 103.577 13 92.5317 13H31.519Z" fill="#AAA6A6"/>
<path d="M112.532 37H109.532V40H112.532V37ZM14.519 33C14.519 23.6112 22.1302 16 31.519 16V10C18.8165 10 8.51904 20.2974 8.51904 33H14.519ZM14.519 57V33H8.51904V57H14.519ZM14.519 93V57H8.51904V93H14.519ZM14.519 153V93H8.51904V153H14.519ZM31.519 170C22.1302 170 14.519 162.389 14.519 153H8.51904C8.51904 165.703 18.8165 176 31.519 176V170ZM179.367 170H31.519V176H179.367V170ZM196.367 153C196.367 162.389 188.756 170 179.367 170V176C192.07 176 202.367 165.703 202.367 153H196.367ZM196.367 57V153H202.367V57H196.367ZM179.367 40C188.756 40 196.367 47.6112 196.367 57H202.367C202.367 44.2975 192.07 34 179.367 34V40ZM112.532 40H179.367V34H112.532V40ZM109.532 33V37H115.532V33H109.532ZM92.5317 16C101.921 16 109.532 23.6112 109.532 33H115.532C115.532 20.2975 105.234 10 92.5317 10V16ZM31.519 16H92.5317V10H31.519V16Z" fill="black" mask="url(#path-3-inside-2_304_465)"/>
<mask id="path-5-inside-3_304_465" fill="white">
<path fill-rule="evenodd" clip-rule="evenodd" d="M20 26C8.95431 26 0 34.9543 0 46V70V106V166C0 177.046 8.9543 186 20 186H167.848C178.894 186 187.848 177.046 187.848 166V70C187.848 58.9543 178.894 50 167.848 50H101.013V46C101.013 34.9543 92.0584 26 81.0127 26H20Z"/>
</mask>
<path fill-rule="evenodd" clip-rule="evenodd" d="M20 26C8.95431 26 0 34.9543 0 46V70V106V166C0 177.046 8.9543 186 20 186H167.848C178.894 186 187.848 177.046 187.848 166V70C187.848 58.9543 178.894 50 167.848 50H101.013V46C101.013 34.9543 92.0584 26 81.0127 26H20Z" fill="#CAC7C7"/>
<path d="M101.013 50H98.0127V53H101.013V50ZM3 46C3 36.6112 10.6112 29 20 29V23C7.29745 23 -3 33.2974 -3 46H3ZM3 70V46H-3V70H3ZM3 106V70H-3V106H3ZM3 166V106H-3V166H3ZM20 183C10.6112 183 3 175.389 3 166H-3C-3 178.703 7.29745 189 20 189V183ZM167.848 183H20V189H167.848V183ZM184.848 166C184.848 175.389 177.237 183 167.848 183V189C180.551 189 190.848 178.703 190.848 166H184.848ZM184.848 70V166H190.848V70H184.848ZM167.848 53C177.237 53 184.848 60.6112 184.848 70H190.848C190.848 57.2975 180.551 47 167.848 47V53ZM101.013 53H167.848V47H101.013V53ZM98.0127 46V50H104.013V46H98.0127ZM81.0127 29C90.4015 29 98.0127 36.6112 98.0127 46H104.013C104.013 33.2975 93.7152 23 81.0127 23V29ZM20 29H81.0127V23H20V29Z" fill="black" mask="url(#path-5-inside-3_304_465)"/>
<path d="M108 44.5H160C161.933 44.5 163.5 46.067 163.5 48V132.461C163.5 135.412 160.072 137.039 157.786 135.172L139.011 119.839C136.678 117.934 133.341 117.881 130.949 119.713L110.128 135.654C107.825 137.417 104.5 135.775 104.5 132.875V48C104.5 46.067 106.067 44.5 108 44.5Z" fill="#BB9DF9" stroke="black" stroke-width="3"/>
</svg>
